<?xml version="1.0" standalone="no"?>
<!DOCTYPE svg PUBLIC "-//W3C//DTD SVG 20010904//EN"
 "http://www.w3.org/TR/2001/REC-SVG-20010904/DTD/svg10.dtd">
<svg version="1.0" xmlns="http://www.w3.org/2000/svg"
 width="377.000000pt" height="377.000000pt" viewBox="0 0 377.000000 377.000000"
 preserveAspectRatio="xMidYMid meet">
<metadata>
Created by potrace 1.11, written by Peter Selinger 2001-2013
</metadata>
<g transform="translate(0.000000,377.000000) scale(0.100000,-0.100000)"
fill="#000000" stroke="none">
<path d="M1859 3596 c-2 -2 -21 -7 -42 -10 -21 -3 -48 -11 -60 -18 -12 -6 -23
-11 -25 -10 -6 5 -99 -49 -122 -70 -77 -70 -129 -165 -330 -603 -15 -33 -53
-114 -85 -180 -51 -107 -123 -261 -228 -485 -19 -41 -54 -115 -77 -165 -23
-49 -73 -155 -110 -235 -37 -80 -91 -194 -120 -255 -29 -60 -65 -137 -80 -170
-15 -33 -46 -98 -67 -145 -52 -111 -64 -148 -67 -212 -11 -233 212 -418 450
-374 92 18 140 53 262 195 151 177 178 206 362 391 165 165 233 229 345 325
38 33 76 66 84 73 73 69 301 239 491 367 309 207 682 383 974 460 96 25 107
30 90 42 -10 7 -26 13 -37 13 -10 0 -45 7 -76 14 -67 18 -98 24 -171 32 -30 3
-77 10 -105 14 -27 5 -137 8 -244 6 l-194 -2 -45 96 c-24 52 -80 169 -123 259
-44 90 -79 165 -79 167 0 1 -28 60 -61 131 -94 196 -171 277 -309 323 -55 19
-191 36 -201 26z"/>
<path d="M2855 2017 c-277 -151 -585 -441 -830 -781 -11 -16 -25 -33 -30 -40
-14 -15 -103 -154 -157 -246 -49 -84 -122 -232 -162 -330 -15 -36 -31 -74 -36
-85 -24 -50 -121 -345 -115 -345 2 0 28 37 58 83 100 152 231 311 382 462 161
162 243 235 278 249 18 6 40 -3 112 -46 245 -149 493 -289 530 -299 214 -59
433 70 489 289 25 97 5 181 -95 389 -38 80 -69 146 -69 148 0 1 -32 69 -72
151 -39 82 -72 151 -73 154 -2 8 -114 243 -123 259 -14 24 -24 22 -87 -12z"/>
</g>
</svg>
